<mxfile host="app.diagrams.net" modified="2023-09-13T23:24:47.816Z" agent="Mozilla/5.0 (Windows NT 10.0; Win64; x64) AppleWebKit/537.36 (KHTML, like Gecko) Chrome/116.0.0.0 Safari/537.36" etag="Wua1k8l36HwwlYc1E77W" version="21.7.4" type="device">
  <diagram name="PÃ¡gina-1" id="WdXr7HQAAMx1tmAR9g-L">
    <mxGraphModel dx="2345" dy="967" grid="1" gridSize="10" guides="1" tooltips="1" connect="1" arrows="1" fold="1" page="1" pageScale="1" pageWidth="827" pageHeight="1169" math="0" shadow="0">
      <root>
        <mxCell id="0" />
        <mxCell id="1" parent="0" />
        <mxCell id="dOJdJ6451scl7A3fg4ha-1" value="Http" style="rounded=0;whiteSpace=wrap;html=1;" vertex="1" parent="1">
          <mxGeometry x="420" y="20" width="120" height="30" as="geometry" />
        </mxCell>
        <mxCell id="dOJdJ6451scl7A3fg4ha-3" value="" style="rounded=0;whiteSpace=wrap;html=1;fillColor=#e1d5e7;strokeColor=#9673a6;" vertex="1" parent="1">
          <mxGeometry x="160" y="70" width="640" height="130" as="geometry" />
        </mxCell>
        <mxCell id="dOJdJ6451scl7A3fg4ha-8" value="Infra" style="text;html=1;strokeColor=none;fillColor=none;align=right;verticalAlign=middle;whiteSpace=wrap;rounded=0;" vertex="1" parent="1">
          <mxGeometry x="700" y="50" width="100" height="20" as="geometry" />
        </mxCell>
        <mxCell id="dOJdJ6451scl7A3fg4ha-60" value="" style="edgeStyle=orthogonalEdgeStyle;rounded=0;orthogonalLoop=1;jettySize=auto;html=1;" edge="1" parent="1" source="dOJdJ6451scl7A3fg4ha-10" target="dOJdJ6451scl7A3fg4ha-1">
          <mxGeometry relative="1" as="geometry" />
        </mxCell>
        <mxCell id="dOJdJ6451scl7A3fg4ha-10" value="HttpAdapter" style="rounded=0;whiteSpace=wrap;html=1;" vertex="1" parent="1">
          <mxGeometry x="420" y="90" width="120" height="30" as="geometry" />
        </mxCell>
        <mxCell id="dOJdJ6451scl7A3fg4ha-12" value="" style="rounded=0;whiteSpace=wrap;html=1;fillColor=#d5e8d4;strokeColor=#82b366;" vertex="1" parent="1">
          <mxGeometry x="160" y="240" width="860" height="230" as="geometry" />
        </mxCell>
        <mxCell id="dOJdJ6451scl7A3fg4ha-13" value="Data" style="text;html=1;strokeColor=none;fillColor=none;align=right;verticalAlign=middle;whiteSpace=wrap;rounded=0;" vertex="1" parent="1">
          <mxGeometry x="920" y="220" width="100" height="20" as="geometry" />
        </mxCell>
        <mxCell id="dOJdJ6451scl7A3fg4ha-14" value="HttpClient" style="rounded=0;whiteSpace=wrap;html=1;dashed=1;" vertex="1" parent="1">
          <mxGeometry x="420" y="260" width="120" height="30" as="geometry" />
        </mxCell>
        <mxCell id="dOJdJ6451scl7A3fg4ha-57" value="" style="edgeStyle=orthogonalEdgeStyle;rounded=0;orthogonalLoop=1;jettySize=auto;html=1;" edge="1" parent="1" source="dOJdJ6451scl7A3fg4ha-16" target="dOJdJ6451scl7A3fg4ha-18">
          <mxGeometry relative="1" as="geometry" />
        </mxCell>
        <mxCell id="dOJdJ6451scl7A3fg4ha-59" value="" style="edgeStyle=orthogonalEdgeStyle;rounded=0;orthogonalLoop=1;jettySize=auto;html=1;" edge="1" parent="1" source="dOJdJ6451scl7A3fg4ha-16" target="dOJdJ6451scl7A3fg4ha-14">
          <mxGeometry relative="1" as="geometry" />
        </mxCell>
        <mxCell id="dOJdJ6451scl7A3fg4ha-16" value="RemoteAuthentication" style="rounded=0;whiteSpace=wrap;html=1;" vertex="1" parent="1">
          <mxGeometry x="410" y="320" width="140" height="30" as="geometry" />
        </mxCell>
        <mxCell id="dOJdJ6451scl7A3fg4ha-18" value="RemoteAuthenticationParams" style="rounded=0;whiteSpace=wrap;html=1;" vertex="1" parent="1">
          <mxGeometry x="170" y="320" width="180" height="30" as="geometry" />
        </mxCell>
        <mxCell id="dOJdJ6451scl7A3fg4ha-19" value="Domain" style="text;html=1;strokeColor=none;fillColor=none;align=right;verticalAlign=middle;whiteSpace=wrap;rounded=0;" vertex="1" parent="1">
          <mxGeometry x="700" y="510" width="100" height="20" as="geometry" />
        </mxCell>
        <mxCell id="dOJdJ6451scl7A3fg4ha-20" value="" style="rounded=0;whiteSpace=wrap;html=1;fillColor=#dae8fc;strokeColor=#6c8ebf;" vertex="1" parent="1">
          <mxGeometry x="160" y="530" width="640" height="240" as="geometry" />
        </mxCell>
        <mxCell id="dOJdJ6451scl7A3fg4ha-21" value="AccountEntity" style="rounded=0;whiteSpace=wrap;html=1;" vertex="1" parent="1">
          <mxGeometry x="615" y="560" width="180" height="30" as="geometry" />
        </mxCell>
        <mxCell id="dOJdJ6451scl7A3fg4ha-54" value="" style="edgeStyle=orthogonalEdgeStyle;rounded=0;orthogonalLoop=1;jettySize=auto;html=1;" edge="1" parent="1" source="dOJdJ6451scl7A3fg4ha-22" target="dOJdJ6451scl7A3fg4ha-23">
          <mxGeometry relative="1" as="geometry" />
        </mxCell>
        <mxCell id="dOJdJ6451scl7A3fg4ha-55" value="" style="edgeStyle=orthogonalEdgeStyle;rounded=0;orthogonalLoop=1;jettySize=auto;html=1;" edge="1" parent="1" source="dOJdJ6451scl7A3fg4ha-22" target="dOJdJ6451scl7A3fg4ha-21">
          <mxGeometry relative="1" as="geometry" />
        </mxCell>
        <mxCell id="dOJdJ6451scl7A3fg4ha-56" value="" style="edgeStyle=orthogonalEdgeStyle;rounded=0;orthogonalLoop=1;jettySize=auto;html=1;exitX=0.5;exitY=1;exitDx=0;exitDy=0;entryX=0.5;entryY=0;entryDx=0;entryDy=0;" edge="1" parent="1" source="dOJdJ6451scl7A3fg4ha-16" target="dOJdJ6451scl7A3fg4ha-22">
          <mxGeometry relative="1" as="geometry">
            <mxPoint x="520" y="490" as="targetPoint" />
          </mxGeometry>
        </mxCell>
        <mxCell id="dOJdJ6451scl7A3fg4ha-22" value="Authentication" style="rounded=0;whiteSpace=wrap;html=1;" vertex="1" parent="1">
          <mxGeometry x="390" y="560" width="180" height="30" as="geometry" />
        </mxCell>
        <mxCell id="dOJdJ6451scl7A3fg4ha-23" value="AuthenticationParams" style="rounded=0;whiteSpace=wrap;html=1;" vertex="1" parent="1">
          <mxGeometry x="170" y="560" width="180" height="30" as="geometry" />
        </mxCell>
        <mxCell id="dOJdJ6451scl7A3fg4ha-24" value="Prestation / Block" style="text;html=1;strokeColor=none;fillColor=none;align=right;verticalAlign=middle;whiteSpace=wrap;rounded=0;" vertex="1" parent="1">
          <mxGeometry x="610" y="800" width="190" height="20" as="geometry" />
        </mxCell>
        <mxCell id="dOJdJ6451scl7A3fg4ha-25" value="" style="rounded=0;whiteSpace=wrap;html=1;fillColor=#ffe6cc;strokeColor=#d79b00;" vertex="1" parent="1">
          <mxGeometry x="160" y="820" width="640" height="240" as="geometry" />
        </mxCell>
        <mxCell id="dOJdJ6451scl7A3fg4ha-46" value="" style="edgeStyle=orthogonalEdgeStyle;rounded=0;orthogonalLoop=1;jettySize=auto;html=1;entryX=0.5;entryY=1;entryDx=0;entryDy=0;" edge="1" parent="1" source="dOJdJ6451scl7A3fg4ha-27" target="dOJdJ6451scl7A3fg4ha-22">
          <mxGeometry relative="1" as="geometry" />
        </mxCell>
        <mxCell id="dOJdJ6451scl7A3fg4ha-53" value="" style="edgeStyle=orthogonalEdgeStyle;rounded=0;orthogonalLoop=1;jettySize=auto;html=1;entryX=1.01;entryY=0.871;entryDx=0;entryDy=0;entryPerimeter=0;" edge="1" parent="1" source="dOJdJ6451scl7A3fg4ha-27" target="dOJdJ6451scl7A3fg4ha-38">
          <mxGeometry relative="1" as="geometry" />
        </mxCell>
        <mxCell id="dOJdJ6451scl7A3fg4ha-27" value="LoginPresenter" style="rounded=0;whiteSpace=wrap;html=1;" vertex="1" parent="1">
          <mxGeometry x="390" y="840" width="180" height="30" as="geometry" />
        </mxCell>
        <mxCell id="dOJdJ6451scl7A3fg4ha-29" value="UI" style="text;html=1;strokeColor=none;fillColor=none;align=right;verticalAlign=middle;whiteSpace=wrap;rounded=0;" vertex="1" parent="1">
          <mxGeometry x="700" y="1080" width="100" height="20" as="geometry" />
        </mxCell>
        <mxCell id="dOJdJ6451scl7A3fg4ha-30" value="" style="rounded=0;whiteSpace=wrap;html=1;fillColor=#b0e3e6;strokeColor=#0e8088;" vertex="1" parent="1">
          <mxGeometry x="160" y="1100" width="640" height="130" as="geometry" />
        </mxCell>
        <mxCell id="dOJdJ6451scl7A3fg4ha-81" value="" style="edgeStyle=orthogonalEdgeStyle;rounded=0;orthogonalLoop=1;jettySize=auto;html=1;" edge="1" parent="1" source="dOJdJ6451scl7A3fg4ha-31" target="dOJdJ6451scl7A3fg4ha-80">
          <mxGeometry relative="1" as="geometry" />
        </mxCell>
        <mxCell id="dOJdJ6451scl7A3fg4ha-31" value="LoginPage" style="rounded=0;whiteSpace=wrap;html=1;" vertex="1" parent="1">
          <mxGeometry x="390" y="1150" width="180" height="30" as="geometry" />
        </mxCell>
        <mxCell id="dOJdJ6451scl7A3fg4ha-32" value="Flutter" style="whiteSpace=wrap;html=1;fillColor=#d0cee2;strokeColor=#56517e;rounded=0;fillStyle=auto;" vertex="1" parent="1">
          <mxGeometry x="420" y="1345" width="120" height="60" as="geometry" />
        </mxCell>
        <mxCell id="dOJdJ6451scl7A3fg4ha-36" value="" style="endArrow=classic;html=1;rounded=0;exitX=0.5;exitY=1;exitDx=0;exitDy=0;entryX=0.5;entryY=0;entryDx=0;entryDy=0;" edge="1" parent="1" source="dOJdJ6451scl7A3fg4ha-31" target="dOJdJ6451scl7A3fg4ha-32">
          <mxGeometry width="50" height="50" relative="1" as="geometry">
            <mxPoint x="549.9957142857143" y="1270" as="sourcePoint" />
            <mxPoint x="455.71000000000004" y="1300" as="targetPoint" />
          </mxGeometry>
        </mxCell>
        <mxCell id="dOJdJ6451scl7A3fg4ha-37" value="" style="endArrow=classic;html=1;rounded=0;entryX=0.5;entryY=1;entryDx=0;entryDy=0;dashed=1;" edge="1" parent="1" source="dOJdJ6451scl7A3fg4ha-31" target="dOJdJ6451scl7A3fg4ha-27">
          <mxGeometry width="50" height="50" relative="1" as="geometry">
            <mxPoint x="540" y="1110" as="sourcePoint" />
            <mxPoint x="590" y="1060" as="targetPoint" />
          </mxGeometry>
        </mxCell>
        <mxCell id="dOJdJ6451scl7A3fg4ha-51" style="edgeStyle=orthogonalEdgeStyle;rounded=0;orthogonalLoop=1;jettySize=auto;html=1;entryX=0.002;entryY=0.098;entryDx=0;entryDy=0;exitX=0.996;exitY=0.444;exitDx=0;exitDy=0;exitPerimeter=0;dashed=1;dashPattern=8 8;entryPerimeter=0;" edge="1" parent="1" target="dOJdJ6451scl7A3fg4ha-27">
          <mxGeometry relative="1" as="geometry">
            <mxPoint x="330.00000000000017" y="853.3199999999999" as="sourcePoint" />
            <mxPoint x="390.4400000000002" y="847.5" as="targetPoint" />
            <Array as="points">
              <mxPoint x="340" y="853" />
              <mxPoint x="340" y="843" />
              <mxPoint x="380" y="843" />
            </Array>
          </mxGeometry>
        </mxCell>
        <mxCell id="dOJdJ6451scl7A3fg4ha-38" value="Validation" style="rounded=0;whiteSpace=wrap;html=1;dashed=1;" vertex="1" parent="1">
          <mxGeometry x="220" y="840" width="110" height="30" as="geometry" />
        </mxCell>
        <mxCell id="dOJdJ6451scl7A3fg4ha-39" value="Validation" style="text;html=1;strokeColor=none;fillColor=none;align=right;verticalAlign=middle;whiteSpace=wrap;rounded=0;" vertex="1" parent="1">
          <mxGeometry x="30" y="800" width="100" height="20" as="geometry" />
        </mxCell>
        <mxCell id="dOJdJ6451scl7A3fg4ha-40" value="" style="rounded=0;whiteSpace=wrap;html=1;fillColor=#fad9d5;strokeColor=#ae4132;" vertex="1" parent="1">
          <mxGeometry x="-260" y="820" width="390" height="410" as="geometry" />
        </mxCell>
        <mxCell id="dOJdJ6451scl7A3fg4ha-87" value="" style="edgeStyle=orthogonalEdgeStyle;rounded=0;orthogonalLoop=1;jettySize=auto;html=1;dashed=1;" edge="1" parent="1" source="dOJdJ6451scl7A3fg4ha-41" target="dOJdJ6451scl7A3fg4ha-84">
          <mxGeometry relative="1" as="geometry" />
        </mxCell>
        <mxCell id="dOJdJ6451scl7A3fg4ha-41" value="RequiredFieldValidation" style="rounded=0;whiteSpace=wrap;html=1;" vertex="1" parent="1">
          <mxGeometry x="-250" y="1050" width="180" height="30" as="geometry" />
        </mxCell>
        <mxCell id="dOJdJ6451scl7A3fg4ha-88" value="" style="edgeStyle=orthogonalEdgeStyle;rounded=0;orthogonalLoop=1;jettySize=auto;html=1;dashed=1;" edge="1" parent="1" source="dOJdJ6451scl7A3fg4ha-42" target="dOJdJ6451scl7A3fg4ha-84">
          <mxGeometry relative="1" as="geometry" />
        </mxCell>
        <mxCell id="dOJdJ6451scl7A3fg4ha-42" value="EmailValidation" style="rounded=0;whiteSpace=wrap;html=1;" vertex="1" parent="1">
          <mxGeometry x="-60" y="1050" width="180" height="30" as="geometry" />
        </mxCell>
        <mxCell id="dOJdJ6451scl7A3fg4ha-85" value="" style="edgeStyle=orthogonalEdgeStyle;rounded=0;orthogonalLoop=1;jettySize=auto;html=1;" edge="1" parent="1" source="dOJdJ6451scl7A3fg4ha-43" target="dOJdJ6451scl7A3fg4ha-84">
          <mxGeometry relative="1" as="geometry" />
        </mxCell>
        <mxCell id="dOJdJ6451scl7A3fg4ha-43" value="ValidationComposite" style="rounded=0;whiteSpace=wrap;html=1;" vertex="1" parent="1">
          <mxGeometry x="-155" y="830" width="180" height="34" as="geometry" />
        </mxCell>
        <mxCell id="dOJdJ6451scl7A3fg4ha-44" value="Arquivos que vai conter o cÃ³digo em Flutter, que Ã© o que monta as telas" style="rounded=1;whiteSpace=wrap;html=1;fillColor=#6E6E6E;opacity=30;" vertex="1" parent="1">
          <mxGeometry x="620" y="1130" width="170" height="60" as="geometry" />
        </mxCell>
        <mxCell id="dOJdJ6451scl7A3fg4ha-45" value="Vai receber um evento da Ui (View), encaminha para a ViewModel e ela retorna para a UI &lt;br&gt;&lt;br&gt;(pode ser retornado sem passar pela ViewModel)" style="rounded=1;whiteSpace=wrap;html=1;fillColor=#6E6E6E;opacity=30;" vertex="1" parent="1">
          <mxGeometry x="620" y="840" width="170" height="200" as="geometry" />
        </mxCell>
        <mxCell id="dOJdJ6451scl7A3fg4ha-61" style="edgeStyle=orthogonalEdgeStyle;rounded=0;orthogonalLoop=1;jettySize=auto;html=1;" edge="1" parent="1" source="dOJdJ6451scl7A3fg4ha-10" target="dOJdJ6451scl7A3fg4ha-14">
          <mxGeometry relative="1" as="geometry" />
        </mxCell>
        <mxCell id="dOJdJ6451scl7A3fg4ha-63" style="edgeStyle=orthogonalEdgeStyle;rounded=0;orthogonalLoop=1;jettySize=auto;html=1;dashed=1;" edge="1" parent="1">
          <mxGeometry relative="1" as="geometry">
            <mxPoint x="440" y="350" as="sourcePoint" />
            <mxPoint x="300" y="560" as="targetPoint" />
            <Array as="points">
              <mxPoint x="440" y="350" />
              <mxPoint x="440" y="410" />
              <mxPoint x="300" y="410" />
            </Array>
          </mxGeometry>
        </mxCell>
        <mxCell id="dOJdJ6451scl7A3fg4ha-62" style="edgeStyle=orthogonalEdgeStyle;rounded=0;orthogonalLoop=1;jettySize=auto;html=1;dashed=1;" edge="1" parent="1" source="dOJdJ6451scl7A3fg4ha-16" target="dOJdJ6451scl7A3fg4ha-21">
          <mxGeometry relative="1" as="geometry">
            <Array as="points">
              <mxPoint x="520" y="410" />
              <mxPoint x="660" y="410" />
            </Array>
          </mxGeometry>
        </mxCell>
        <mxCell id="dOJdJ6451scl7A3fg4ha-64" style="edgeStyle=orthogonalEdgeStyle;rounded=0;orthogonalLoop=1;jettySize=auto;html=1;dashed=1;" edge="1" parent="1" source="dOJdJ6451scl7A3fg4ha-18" target="dOJdJ6451scl7A3fg4ha-23">
          <mxGeometry relative="1" as="geometry">
            <Array as="points">
              <mxPoint x="260" y="510" />
              <mxPoint x="260" y="510" />
            </Array>
          </mxGeometry>
        </mxCell>
        <mxCell id="dOJdJ6451scl7A3fg4ha-66" value="ValidaÃ§Ãµes que vÃ£o ser chamadas pela presenter" style="rounded=1;whiteSpace=wrap;html=1;fillColor=#6E6E6E;opacity=30;" vertex="1" parent="1">
          <mxGeometry x="-145" y="1150" width="170" height="70" as="geometry" />
        </mxCell>
        <mxCell id="dOJdJ6451scl7A3fg4ha-67" value="Classes que implementam de DATA para interagir com lib de terceiros" style="rounded=1;whiteSpace=wrap;html=1;fillColor=#6E6E6E;opacity=30;" vertex="1" parent="1">
          <mxGeometry x="620" y="80" width="170" height="110" as="geometry" />
        </mxCell>
        <mxCell id="dOJdJ6451scl7A3fg4ha-68" value="- A camada de Infraestrutura geralmente contÃ©m cÃ³digo relacionado a detalhes de implementaÃ§Ã£o que nÃ£o sÃ£o diretamente relacionados Ã  lÃ³gica de negÃ³cios, mas sÃ£o necessÃ¡rios para que o aplicativo funcione.&lt;br&gt;- Isso pode incluir configuraÃ§Ã£o de banco de dados, gerenciamento de estado, injeÃ§Ã£o de dependÃªncia, gerenciamento de permissÃµes e outras tarefas de baixo nÃ­vel.&lt;br&gt;- Muitas vezes, a infraestrutura Ã© onde vocÃª interage com bibliotecas ou frameworks de terceiros." style="rounded=1;whiteSpace=wrap;html=1;fillColor=default;opacity=30;strokeColor=default;align=left;" vertex="1" parent="1">
          <mxGeometry x="840" y="80" width="900" height="110" as="geometry" />
        </mxCell>
        <mxCell id="dOJdJ6451scl7A3fg4ha-70" value="&lt;ul style=&quot;border: 0px solid rgb(57, 62, 64); box-sizing: border-box; --tw-border-spacing-x: 0; --tw-border-spacing-y: 0; --tw-translate-x: 0; --tw-translate-y: 0; --tw-rotate: 0; --tw-skew-x: 0; --tw-skew-y: 0; --tw-scale-x: 1; --tw-scale-y: 1; --tw-pan-x: ; --tw-pan-y: ; --tw-pinch-zoom: ; --tw-scroll-snap-strictness: proximity; --tw-gradient-from-position: ; --tw-gradient-via-position: ; --tw-gradient-to-position: ; --tw-ordinal: ; --tw-slashed-zero: ; --tw-numeric-figure: ; --tw-numeric-spacing: ; --tw-numeric-fraction: ; --tw-ring-inset: ; --tw-ring-offset-width: 0px; --tw-ring-offset-color: #fff; --tw-ring-color: rgba(69,89,164,.5); --tw-ring-offset-shadow: 0 0 transparent; --tw-ring-shadow: 0 0 transparent; --tw-shadow: 0 0 transparent; --tw-shadow-colored: 0 0 transparent; --tw-blur: ; --tw-brightness: ; --tw-contrast: ; --tw-grayscale: ; --tw-hue-rotate: ; --tw-invert: ; --tw-saturate: ; --tw-sepia: ; --tw-drop-shadow: ; --tw-backdrop-blur: ; --tw-backdrop-brightness: ; --tw-backdrop-contrast: ; --tw-backdrop-grayscale: ; --tw-backdrop-hue-rotate: ; --tw-backdrop-invert: ; --tw-backdrop-opacity: ; --tw-backdrop-saturate: ; --tw-backdrop-sepia: ; --darkreader-bg--tw-ring-offset-width: 0px; --darkreader-bg--tw-ring-offset-color: #181a1b; --darkreader-bg--tw-ring-color: rgba(55, 71, 131, 0.5); --darkreader-bg--tw-ring-offset-shadow: 0 0 transparent; --darkreader-bg--tw-ring-shadow: 0 0 transparent; --darkreader-bg--tw-shadow: 0 0 transparent; list-style-position: initial; list-style-image: initial; margin: 0px 0px 0px 1rem; padding: 0px; display: flex; flex-direction: column; color: rgb(206, 202, 195); font-family: SÃ¶hne, ui-sans-serif, system-ui, -apple-system, &amp;quot;Segoe UI&amp;quot;, Roboto, Ubuntu, Cantarell, &amp;quot;Noto Sans&amp;quot;, sans-serif, &amp;quot;Helvetica Neue&amp;quot;, Arial, &amp;quot;Apple Color Emoji&amp;quot;, &amp;quot;Segoe UI Emoji&amp;quot;, &amp;quot;Segoe UI Symbol&amp;quot;, &amp;quot;Noto Color Emoji&amp;quot;; font-size: 16px; background-color: rgb(57, 62, 64);&quot;&gt;&lt;li style=&quot;border: 0px solid rgb(57, 62, 64); box-sizing: border-box; --tw-border-spacing-x: 0; --tw-border-spacing-y: 0; --tw-translate-x: 0; --tw-translate-y: 0; --tw-rotate: 0; --tw-skew-x: 0; --tw-skew-y: 0; --tw-scale-x: 1; --tw-scale-y: 1; --tw-pan-x: ; --tw-pan-y: ; --tw-pinch-zoom: ; --tw-scroll-snap-strictness: proximity; --tw-gradient-from-position: ; --tw-gradient-via-position: ; --tw-gradient-to-position: ; --tw-ordinal: ; --tw-slashed-zero: ; --tw-numeric-figure: ; --tw-numeric-spacing: ; --tw-numeric-fraction: ; --tw-ring-inset: ; --tw-ring-offset-width: 0px; --tw-ring-offset-color: #fff; --tw-ring-color: rgba(69,89,164,.5); --tw-ring-offset-shadow: 0 0 transparent; --tw-ring-shadow: 0 0 transparent; --tw-shadow: 0 0 transparent; --tw-shadow-colored: 0 0 transparent; --tw-blur: ; --tw-brightness: ; --tw-contrast: ; --tw-grayscale: ; --tw-hue-rotate: ; --tw-invert: ; --tw-saturate: ; --tw-sepia: ; --tw-drop-shadow: ; --tw-backdrop-blur: ; --tw-backdrop-brightness: ; --tw-backdrop-contrast: ; --tw-backdrop-grayscale: ; --tw-backdrop-hue-rotate: ; --tw-backdrop-invert: ; --tw-backdrop-opacity: ; --tw-backdrop-saturate: ; --tw-backdrop-sepia: ; --darkreader-bg--tw-ring-offset-width: 0px; --darkreader-bg--tw-ring-offset-color: #181a1b; --darkreader-bg--tw-ring-color: rgba(55, 71, 131, 0.5); --darkreader-bg--tw-ring-offset-shadow: 0 0 transparent; --darkreader-bg--tw-ring-shadow: 0 0 transparent; --darkreader-bg--tw-shadow: 0 0 transparent; margin: 0px; padding-left: 0.375em; display: block; min-height: 28px;&quot;&gt;A camada de Dados Ã© responsÃ¡vel por fornecer acesso aos dados da aplicaÃ§Ã£o. Isso inclui a recuperaÃ§Ã£o e a persistÃªncia de dados.&lt;/li&gt;&lt;li style=&quot;border: 0px solid rgb(57, 62, 64); box-sizing: border-box; --tw-border-spacing-x: 0; --tw-border-spacing-y: 0; --tw-translate-x: 0; --tw-translate-y: 0; --tw-rotate: 0; --tw-skew-x: 0; --tw-skew-y: 0; --tw-scale-x: 1; --tw-scale-y: 1; --tw-pan-x: ; --tw-pan-y: ; --tw-pinch-zoom: ; --tw-scroll-snap-strictness: proximity; --tw-gradient-from-position: ; --tw-gradient-via-position: ; --tw-gradient-to-position: ; --tw-ordinal: ; --tw-slashed-zero: ; --tw-numeric-figure: ; --tw-numeric-spacing: ; --tw-numeric-fraction: ; --tw-ring-inset: ; --tw-ring-offset-width: 0px; --tw-ring-offset-color: #fff; --tw-ring-color: rgba(69,89,164,.5); --tw-ring-offset-shadow: 0 0 transparent; --tw-ring-shadow: 0 0 transparent; --tw-shadow: 0 0 transparent; --tw-shadow-colored: 0 0 transparent; --tw-blur: ; --tw-brightness: ; --tw-contrast: ; --tw-grayscale: ; --tw-hue-rotate: ; --tw-invert: ; --tw-saturate: ; --tw-sepia: ; --tw-drop-shadow: ; --tw-backdrop-blur: ; --tw-backdrop-brightness: ; --tw-backdrop-contrast: ; --tw-backdrop-grayscale: ; --tw-backdrop-hue-rotate: ; --tw-backdrop-invert: ; --tw-backdrop-opacity: ; --tw-backdrop-saturate: ; --tw-backdrop-sepia: ; --darkreader-bg--tw-ring-offset-width: 0px; --darkreader-bg--tw-ring-offset-color: #181a1b; --darkreader-bg--tw-ring-color: rgba(55, 71, 131, 0.5); --darkreader-bg--tw-ring-offset-shadow: 0 0 transparent; --darkreader-bg--tw-ring-shadow: 0 0 transparent; --darkreader-bg--tw-shadow: 0 0 transparent; margin: 0px; padding-left: 0.375em; display: block; min-height: 28px;&quot;&gt;Pode incluir implementaÃ§Ãµes de repositÃ³rios que definem como os dados sÃ£o obtidos (de fontes locais ou remotas), mapeadores de dados, gerenciadores de cache e muito mais.&lt;/li&gt;&lt;li style=&quot;border: 0px solid rgb(57, 62, 64); box-sizing: border-box; --tw-border-spacing-x: 0; --tw-border-spacing-y: 0; --tw-translate-x: 0; --tw-translate-y: 0; --tw-rotate: 0; --tw-skew-x: 0; --tw-skew-y: 0; --tw-scale-x: 1; --tw-scale-y: 1; --tw-pan-x: ; --tw-pan-y: ; --tw-pinch-zoom: ; --tw-scroll-snap-strictness: proximity; --tw-gradient-from-position: ; --tw-gradient-via-position: ; --tw-gradient-to-position: ; --tw-ordinal: ; --tw-slashed-zero: ; --tw-numeric-figure: ; --tw-numeric-spacing: ; --tw-numeric-fraction: ; --tw-ring-inset: ; --tw-ring-offset-width: 0px; --tw-ring-offset-color: #fff; --tw-ring-color: rgba(69,89,164,.5); --tw-ring-offset-shadow: 0 0 transparent; --tw-ring-shadow: 0 0 transparent; --tw-shadow: 0 0 transparent; --tw-shadow-colored: 0 0 transparent; --tw-blur: ; --tw-brightness: ; --tw-contrast: ; --tw-grayscale: ; --tw-hue-rotate: ; --tw-invert: ; --tw-saturate: ; --tw-sepia: ; --tw-drop-shadow: ; --tw-backdrop-blur: ; --tw-backdrop-brightness: ; --tw-backdrop-contrast: ; --tw-backdrop-grayscale: ; --tw-backdrop-hue-rotate: ; --tw-backdrop-invert: ; --tw-backdrop-opacity: ; --tw-backdrop-saturate: ; --tw-backdrop-sepia: ; --darkreader-bg--tw-ring-offset-width: 0px; --darkreader-bg--tw-ring-offset-color: #181a1b; --darkreader-bg--tw-ring-color: rgba(55, 71, 131, 0.5); --darkreader-bg--tw-ring-offset-shadow: 0 0 transparent; --darkreader-bg--tw-ring-shadow: 0 0 transparent; --darkreader-bg--tw-shadow: 0 0 transparent; margin: 0px; padding-left: 0.375em; display: block; min-height: 28px;&quot;&gt;Essa camada geralmente Ã© independente do Flutter e pode ser reutilizada em diferentes projetos.&lt;/li&gt;&lt;/ul&gt;" style="rounded=1;whiteSpace=wrap;html=1;fillColor=default;opacity=30;strokeColor=default;align=left;" vertex="1" parent="1">
          <mxGeometry x="1040" y="240" width="700" height="240" as="geometry" />
        </mxCell>
        <mxCell id="dOJdJ6451scl7A3fg4ha-71" value="&lt;ul style=&quot;border: 0px solid rgb(57, 62, 64); box-sizing: border-box; --tw-border-spacing-x: 0; --tw-border-spacing-y: 0; --tw-translate-x: 0; --tw-translate-y: 0; --tw-rotate: 0; --tw-skew-x: 0; --tw-skew-y: 0; --tw-scale-x: 1; --tw-scale-y: 1; --tw-pan-x: ; --tw-pan-y: ; --tw-pinch-zoom: ; --tw-scroll-snap-strictness: proximity; --tw-gradient-from-position: ; --tw-gradient-via-position: ; --tw-gradient-to-position: ; --tw-ordinal: ; --tw-slashed-zero: ; --tw-numeric-figure: ; --tw-numeric-spacing: ; --tw-numeric-fraction: ; --tw-ring-inset: ; --tw-ring-offset-width: 0px; --tw-ring-offset-color: #fff; --tw-ring-color: rgba(69,89,164,.5); --tw-ring-offset-shadow: 0 0 transparent; --tw-ring-shadow: 0 0 transparent; --tw-shadow: 0 0 transparent; --tw-shadow-colored: 0 0 transparent; --tw-blur: ; --tw-brightness: ; --tw-contrast: ; --tw-grayscale: ; --tw-hue-rotate: ; --tw-invert: ; --tw-saturate: ; --tw-sepia: ; --tw-drop-shadow: ; --tw-backdrop-blur: ; --tw-backdrop-brightness: ; --tw-backdrop-contrast: ; --tw-backdrop-grayscale: ; --tw-backdrop-hue-rotate: ; --tw-backdrop-invert: ; --tw-backdrop-opacity: ; --tw-backdrop-saturate: ; --tw-backdrop-sepia: ; --darkreader-bg--tw-ring-offset-width: 0px; --darkreader-bg--tw-ring-offset-color: #181a1b; --darkreader-bg--tw-ring-color: rgba(55, 71, 131, 0.5); --darkreader-bg--tw-ring-offset-shadow: 0 0 transparent; --darkreader-bg--tw-ring-shadow: 0 0 transparent; --darkreader-bg--tw-shadow: 0 0 transparent; list-style-position: initial; list-style-image: initial; margin: 0px 0px 0px 1rem; padding: 0px; display: flex; flex-direction: column; color: rgb(206, 202, 195); font-family: SÃ¶hne, ui-sans-serif, system-ui, -apple-system, &amp;quot;Segoe UI&amp;quot;, Roboto, Ubuntu, Cantarell, &amp;quot;Noto Sans&amp;quot;, sans-serif, &amp;quot;Helvetica Neue&amp;quot;, Arial, &amp;quot;Apple Color Emoji&amp;quot;, &amp;quot;Segoe UI Emoji&amp;quot;, &amp;quot;Segoe UI Symbol&amp;quot;, &amp;quot;Noto Color Emoji&amp;quot;; font-size: 16px; background-color: rgb(57, 62, 64);&quot;&gt;&lt;li style=&quot;border: 0px solid rgb(57, 62, 64); box-sizing: border-box; --tw-border-spacing-x: 0; --tw-border-spacing-y: 0; --tw-translate-x: 0; --tw-translate-y: 0; --tw-rotate: 0; --tw-skew-x: 0; --tw-skew-y: 0; --tw-scale-x: 1; --tw-scale-y: 1; --tw-pan-x: ; --tw-pan-y: ; --tw-pinch-zoom: ; --tw-scroll-snap-strictness: proximity; --tw-gradient-from-position: ; --tw-gradient-via-position: ; --tw-gradient-to-position: ; --tw-ordinal: ; --tw-slashed-zero: ; --tw-numeric-figure: ; --tw-numeric-spacing: ; --tw-numeric-fraction: ; --tw-ring-inset: ; --tw-ring-offset-width: 0px; --tw-ring-offset-color: #fff; --tw-ring-color: rgba(69,89,164,.5); --tw-ring-offset-shadow: 0 0 transparent; --tw-ring-shadow: 0 0 transparent; --tw-shadow: 0 0 transparent; --tw-shadow-colored: 0 0 transparent; --tw-blur: ; --tw-brightness: ; --tw-contrast: ; --tw-grayscale: ; --tw-hue-rotate: ; --tw-invert: ; --tw-saturate: ; --tw-sepia: ; --tw-drop-shadow: ; --tw-backdrop-blur: ; --tw-backdrop-brightness: ; --tw-backdrop-contrast: ; --tw-backdrop-grayscale: ; --tw-backdrop-hue-rotate: ; --tw-backdrop-invert: ; --tw-backdrop-opacity: ; --tw-backdrop-saturate: ; --tw-backdrop-sepia: ; --darkreader-bg--tw-ring-offset-width: 0px; --darkreader-bg--tw-ring-offset-color: #181a1b; --darkreader-bg--tw-ring-color: rgba(55, 71, 131, 0.5); --darkreader-bg--tw-ring-offset-shadow: 0 0 transparent; --darkreader-bg--tw-ring-shadow: 0 0 transparent; --darkreader-bg--tw-shadow: 0 0 transparent; margin: 0px; padding-left: 0.375em; display: block; min-height: 28px;&quot;&gt;&lt;ul style=&quot;border: 0px solid rgb(57, 62, 64); box-sizing: border-box; --tw-border-spacing-x: 0; --tw-border-spacing-y: 0; --tw-translate-x: 0; --tw-translate-y: 0; --tw-rotate: 0; --tw-skew-x: 0; --tw-skew-y: 0; --tw-scale-x: 1; --tw-scale-y: 1; --tw-pan-x: ; --tw-pan-y: ; --tw-pinch-zoom: ; --tw-scroll-snap-strictness: proximity; --tw-gradient-from-position: ; --tw-gradient-via-position: ; --tw-gradient-to-position: ; --tw-ordinal: ; --tw-slashed-zero: ; --tw-numeric-figure: ; --tw-numeric-spacing: ; --tw-numeric-fraction: ; --tw-ring-inset: ; --tw-ring-offset-width: 0px; --tw-ring-offset-color: #fff; --tw-ring-color: rgba(69,89,164,.5); --tw-ring-offset-shadow: 0 0 transparent; --tw-ring-shadow: 0 0 transparent; --tw-shadow: 0 0 transparent; --tw-shadow-colored: 0 0 transparent; --tw-blur: ; --tw-brightness: ; --tw-contrast: ; --tw-grayscale: ; --tw-hue-rotate: ; --tw-invert: ; --tw-saturate: ; --tw-sepia: ; --tw-drop-shadow: ; --tw-backdrop-blur: ; --tw-backdrop-brightness: ; --tw-backdrop-contrast: ; --tw-backdrop-grayscale: ; --tw-backdrop-hue-rotate: ; --tw-backdrop-invert: ; --tw-backdrop-opacity: ; --tw-backdrop-saturate: ; --tw-backdrop-sepia: ; --darkreader-bg--tw-ring-offset-width: 0px; --darkreader-bg--tw-ring-offset-color: #181a1b; --darkreader-bg--tw-ring-color: rgba(55, 71, 131, 0.5); --darkreader-bg--tw-ring-offset-shadow: 0 0 transparent; --darkreader-bg--tw-ring-shadow: 0 0 transparent; --darkreader-bg--tw-shadow: 0 0 transparent; list-style: disc; margin: 0px 0px 0px 1rem; padding: 0px; display: flex; flex-direction: column;&quot;&gt;&lt;li style=&quot;border: 0px solid rgb(57, 62, 64); box-sizing: border-box; --tw-border-spacing-x: 0; --tw-border-spacing-y: 0; --tw-translate-x: 0; --tw-translate-y: 0; --tw-rotate: 0; --tw-skew-x: 0; --tw-skew-y: 0; --tw-scale-x: 1; --tw-scale-y: 1; --tw-pan-x: ; --tw-pan-y: ; --tw-pinch-zoom: ; --tw-scroll-snap-strictness: proximity; --tw-gradient-from-position: ; --tw-gradient-via-position: ; --tw-gradient-to-position: ; --tw-ordinal: ; --tw-slashed-zero: ; --tw-numeric-figure: ; --tw-numeric-spacing: ; --tw-numeric-fraction: ; --tw-ring-inset: ; --tw-ring-offset-width: 0px; --tw-ring-offset-color: #fff; --tw-ring-color: rgba(69,89,164,.5); --tw-ring-offset-shadow: 0 0 transparent; --tw-ring-shadow: 0 0 transparent; --tw-shadow: 0 0 transparent; --tw-shadow-colored: 0 0 transparent; --tw-blur: ; --tw-brightness: ; --tw-contrast: ; --tw-grayscale: ; --tw-hue-rotate: ; --tw-invert: ; --tw-saturate: ; --tw-sepia: ; --tw-drop-shadow: ; --tw-backdrop-blur: ; --tw-backdrop-brightness: ; --tw-backdrop-contrast: ; --tw-backdrop-grayscale: ; --tw-backdrop-hue-rotate: ; --tw-backdrop-invert: ; --tw-backdrop-opacity: ; --tw-backdrop-saturate: ; --tw-backdrop-sepia: ; --darkreader-bg--tw-ring-offset-width: 0px; --darkreader-bg--tw-ring-offset-color: #181a1b; --darkreader-bg--tw-ring-color: rgba(55, 71, 131, 0.5); --darkreader-bg--tw-ring-offset-shadow: 0 0 transparent; --darkreader-bg--tw-ring-shadow: 0 0 transparent; --darkreader-bg--tw-shadow: 0 0 transparent; margin: 0px; padding-left: 0.375em; display: block; min-height: 28px;&quot;&gt;A camada de DomÃ­nio Ã© o coraÃ§Ã£o da aplicaÃ§Ã£o, onde reside a lÃ³gica de negÃ³cios pura e desacoplada da infraestrutura e dos detalhes de implementaÃ§Ã£o.&lt;/li&gt;&lt;li style=&quot;border: 0px solid rgb(57, 62, 64); box-sizing: border-box; --tw-border-spacing-x: 0; --tw-border-spacing-y: 0; --tw-translate-x: 0; --tw-translate-y: 0; --tw-rotate: 0; --tw-skew-x: 0; --tw-skew-y: 0; --tw-scale-x: 1; --tw-scale-y: 1; --tw-pan-x: ; --tw-pan-y: ; --tw-pinch-zoom: ; --tw-scroll-snap-strictness: proximity; --tw-gradient-from-position: ; --tw-gradient-via-position: ; --tw-gradient-to-position: ; --tw-ordinal: ; --tw-slashed-zero: ; --tw-numeric-figure: ; --tw-numeric-spacing: ; --tw-numeric-fraction: ; --tw-ring-inset: ; --tw-ring-offset-width: 0px; --tw-ring-offset-color: #fff; --tw-ring-color: rgba(69,89,164,.5); --tw-ring-offset-shadow: 0 0 transparent; --tw-ring-shadow: 0 0 transparent; --tw-shadow: 0 0 transparent; --tw-shadow-colored: 0 0 transparent; --tw-blur: ; --tw-brightness: ; --tw-contrast: ; --tw-grayscale: ; --tw-hue-rotate: ; --tw-invert: ; --tw-saturate: ; --tw-sepia: ; --tw-drop-shadow: ; --tw-backdrop-blur: ; --tw-backdrop-brightness: ; --tw-backdrop-contrast: ; --tw-backdrop-grayscale: ; --tw-backdrop-hue-rotate: ; --tw-backdrop-invert: ; --tw-backdrop-opacity: ; --tw-backdrop-saturate: ; --tw-backdrop-sepia: ; --darkreader-bg--tw-ring-offset-width: 0px; --darkreader-bg--tw-ring-offset-color: #181a1b; --darkreader-bg--tw-ring-color: rgba(55, 71, 131, 0.5); --darkreader-bg--tw-ring-offset-shadow: 0 0 transparent; --darkreader-bg--tw-ring-shadow: 0 0 transparent; --darkreader-bg--tw-shadow: 0 0 transparent; margin: 0px; padding-left: 0.375em; display: block; min-height: 28px;&quot;&gt;ContÃ©m as entidades de domÃ­nio, que sÃ£o objetos que representam os conceitos de negÃ³cios do aplicativo.&lt;/li&gt;&lt;li style=&quot;border: 0px solid rgb(57, 62, 64); box-sizing: border-box; --tw-border-spacing-x: 0; --tw-border-spacing-y: 0; --tw-translate-x: 0; --tw-translate-y: 0; --tw-rotate: 0; --tw-skew-x: 0; --tw-skew-y: 0; --tw-scale-x: 1; --tw-scale-y: 1; --tw-pan-x: ; --tw-pan-y: ; --tw-pinch-zoom: ; --tw-scroll-snap-strictness: proximity; --tw-gradient-from-position: ; --tw-gradient-via-position: ; --tw-gradient-to-position: ; --tw-ordinal: ; --tw-slashed-zero: ; --tw-numeric-figure: ; --tw-numeric-spacing: ; --tw-numeric-fraction: ; --tw-ring-inset: ; --tw-ring-offset-width: 0px; --tw-ring-offset-color: #fff; --tw-ring-color: rgba(69,89,164,.5); --tw-ring-offset-shadow: 0 0 transparent; --tw-ring-shadow: 0 0 transparent; --tw-shadow: 0 0 transparent; --tw-shadow-colored: 0 0 transparent; --tw-blur: ; --tw-brightness: ; --tw-contrast: ; --tw-grayscale: ; --tw-hue-rotate: ; --tw-invert: ; --tw-saturate: ; --tw-sepia: ; --tw-drop-shadow: ; --tw-backdrop-blur: ; --tw-backdrop-brightness: ; --tw-backdrop-contrast: ; --tw-backdrop-grayscale: ; --tw-backdrop-hue-rotate: ; --tw-backdrop-invert: ; --tw-backdrop-opacity: ; --tw-backdrop-saturate: ; --tw-backdrop-sepia: ; --darkreader-bg--tw-ring-offset-width: 0px; --darkreader-bg--tw-ring-offset-color: #181a1b; --darkreader-bg--tw-ring-color: rgba(55, 71, 131, 0.5); --darkreader-bg--tw-ring-offset-shadow: 0 0 transparent; --darkreader-bg--tw-ring-shadow: 0 0 transparent; --darkreader-bg--tw-shadow: 0 0 transparent; margin: 0px; padding-left: 0.375em; display: block; min-height: 28px;&quot;&gt;TambÃ©m inclui os casos de uso, que sÃ£o interaÃ§Ãµes ou operaÃ§Ãµes que o aplicativo pode executar em seus dados.&lt;/li&gt;&lt;li style=&quot;border: 0px solid rgb(57, 62, 64); box-sizing: border-box; --tw-border-spacing-x: 0; --tw-border-spacing-y: 0; --tw-translate-x: 0; --tw-translate-y: 0; --tw-rotate: 0; --tw-skew-x: 0; --tw-skew-y: 0; --tw-scale-x: 1; --tw-scale-y: 1; --tw-pan-x: ; --tw-pan-y: ; --tw-pinch-zoom: ; --tw-scroll-snap-strictness: proximity; --tw-gradient-from-position: ; --tw-gradient-via-position: ; --tw-gradient-to-position: ; --tw-ordinal: ; --tw-slashed-zero: ; --tw-numeric-figure: ; --tw-numeric-spacing: ; --tw-numeric-fraction: ; --tw-ring-inset: ; --tw-ring-offset-width: 0px; --tw-ring-offset-color: #fff; --tw-ring-color: rgba(69,89,164,.5); --tw-ring-offset-shadow: 0 0 transparent; --tw-ring-shadow: 0 0 transparent; --tw-shadow: 0 0 transparent; --tw-shadow-colored: 0 0 transparent; --tw-blur: ; --tw-brightness: ; --tw-contrast: ; --tw-grayscale: ; --tw-hue-rotate: ; --tw-invert: ; --tw-saturate: ; --tw-sepia: ; --tw-drop-shadow: ; --tw-backdrop-blur: ; --tw-backdrop-brightness: ; --tw-backdrop-contrast: ; --tw-backdrop-grayscale: ; --tw-backdrop-hue-rotate: ; --tw-backdrop-invert: ; --tw-backdrop-opacity: ; --tw-backdrop-saturate: ; --tw-backdrop-sepia: ; --darkreader-bg--tw-ring-offset-width: 0px; --darkreader-bg--tw-ring-offset-color: #181a1b; --darkreader-bg--tw-ring-color: rgba(55, 71, 131, 0.5); --darkreader-bg--tw-ring-offset-shadow: 0 0 transparent; --darkreader-bg--tw-ring-shadow: 0 0 transparent; --darkreader-bg--tw-shadow: 0 0 transparent; margin: 0px; padding-left: 0.375em; display: block; min-height: 28px;&quot;&gt;Essa camada deve ser independente do Flutter e nÃ£o deve conter lÃ³gica especÃ­fica da interface do usuÃ¡rio.&lt;/li&gt;&lt;/ul&gt;&lt;/li&gt;&lt;/ul&gt;" style="rounded=1;whiteSpace=wrap;html=1;fillColor=default;opacity=30;strokeColor=default;align=left;" vertex="1" parent="1">
          <mxGeometry x="1030" y="530" width="720" height="240" as="geometry" />
        </mxCell>
        <mxCell id="dOJdJ6451scl7A3fg4ha-72" value="&lt;ul style=&quot;border: 0px solid rgb(57, 62, 64); box-sizing: border-box; --tw-border-spacing-x: 0; --tw-border-spacing-y: 0; --tw-translate-x: 0; --tw-translate-y: 0; --tw-rotate: 0; --tw-skew-x: 0; --tw-skew-y: 0; --tw-scale-x: 1; --tw-scale-y: 1; --tw-pan-x: ; --tw-pan-y: ; --tw-pinch-zoom: ; --tw-scroll-snap-strictness: proximity; --tw-gradient-from-position: ; --tw-gradient-via-position: ; --tw-gradient-to-position: ; --tw-ordinal: ; --tw-slashed-zero: ; --tw-numeric-figure: ; --tw-numeric-spacing: ; --tw-numeric-fraction: ; --tw-ring-inset: ; --tw-ring-offset-width: 0px; --tw-ring-offset-color: #fff; --tw-ring-color: rgba(69,89,164,.5); --tw-ring-offset-shadow: 0 0 transparent; --tw-ring-shadow: 0 0 transparent; --tw-shadow: 0 0 transparent; --tw-shadow-colored: 0 0 transparent; --tw-blur: ; --tw-brightness: ; --tw-contrast: ; --tw-grayscale: ; --tw-hue-rotate: ; --tw-invert: ; --tw-saturate: ; --tw-sepia: ; --tw-drop-shadow: ; --tw-backdrop-blur: ; --tw-backdrop-brightness: ; --tw-backdrop-contrast: ; --tw-backdrop-grayscale: ; --tw-backdrop-hue-rotate: ; --tw-backdrop-invert: ; --tw-backdrop-opacity: ; --tw-backdrop-saturate: ; --tw-backdrop-sepia: ; --darkreader-bg--tw-ring-offset-width: 0px; --darkreader-bg--tw-ring-offset-color: #181a1b; --darkreader-bg--tw-ring-color: rgba(55, 71, 131, 0.5); --darkreader-bg--tw-ring-offset-shadow: 0 0 transparent; --darkreader-bg--tw-ring-shadow: 0 0 transparent; --darkreader-bg--tw-shadow: 0 0 transparent; list-style-position: initial; list-style-image: initial; margin: 0px 0px 0px 1rem; padding: 0px; display: flex; flex-direction: column; color: rgb(206, 202, 195); font-family: SÃ¶hne, ui-sans-serif, system-ui, -apple-system, &amp;quot;Segoe UI&amp;quot;, Roboto, Ubuntu, Cantarell, &amp;quot;Noto Sans&amp;quot;, sans-serif, &amp;quot;Helvetica Neue&amp;quot;, Arial, &amp;quot;Apple Color Emoji&amp;quot;, &amp;quot;Segoe UI Emoji&amp;quot;, &amp;quot;Segoe UI Symbol&amp;quot;, &amp;quot;Noto Color Emoji&amp;quot;; font-size: 16px; background-color: rgb(57, 62, 64);&quot;&gt;&lt;li style=&quot;border: 0px solid rgb(57, 62, 64); box-sizing: border-box; --tw-border-spacing-x: 0; --tw-border-spacing-y: 0; --tw-translate-x: 0; --tw-translate-y: 0; --tw-rotate: 0; --tw-skew-x: 0; --tw-skew-y: 0; --tw-scale-x: 1; --tw-scale-y: 1; --tw-pan-x: ; --tw-pan-y: ; --tw-pinch-zoom: ; --tw-scroll-snap-strictness: proximity; --tw-gradient-from-position: ; --tw-gradient-via-position: ; --tw-gradient-to-position: ; --tw-ordinal: ; --tw-slashed-zero: ; --tw-numeric-figure: ; --tw-numeric-spacing: ; --tw-numeric-fraction: ; --tw-ring-inset: ; --tw-ring-offset-width: 0px; --tw-ring-offset-color: #fff; --tw-ring-color: rgba(69,89,164,.5); --tw-ring-offset-shadow: 0 0 transparent; --tw-ring-shadow: 0 0 transparent; --tw-shadow: 0 0 transparent; --tw-shadow-colored: 0 0 transparent; --tw-blur: ; --tw-brightness: ; --tw-contrast: ; --tw-grayscale: ; --tw-hue-rotate: ; --tw-invert: ; --tw-saturate: ; --tw-sepia: ; --tw-drop-shadow: ; --tw-backdrop-blur: ; --tw-backdrop-brightness: ; --tw-backdrop-contrast: ; --tw-backdrop-grayscale: ; --tw-backdrop-hue-rotate: ; --tw-backdrop-invert: ; --tw-backdrop-opacity: ; --tw-backdrop-saturate: ; --tw-backdrop-sepia: ; --darkreader-bg--tw-ring-offset-width: 0px; --darkreader-bg--tw-ring-offset-color: #181a1b; --darkreader-bg--tw-ring-color: rgba(55, 71, 131, 0.5); --darkreader-bg--tw-ring-offset-shadow: 0 0 transparent; --darkreader-bg--tw-ring-shadow: 0 0 transparent; --darkreader-bg--tw-shadow: 0 0 transparent; margin: 0px; padding-left: 0.375em; display: block; min-height: 28px;&quot;&gt;&lt;ul style=&quot;border: 0px solid rgb(57, 62, 64); box-sizing: border-box; --tw-border-spacing-x: 0; --tw-border-spacing-y: 0; --tw-translate-x: 0; --tw-translate-y: 0; --tw-rotate: 0; --tw-skew-x: 0; --tw-skew-y: 0; --tw-scale-x: 1; --tw-scale-y: 1; --tw-pan-x: ; --tw-pan-y: ; --tw-pinch-zoom: ; --tw-scroll-snap-strictness: proximity; --tw-gradient-from-position: ; --tw-gradient-via-position: ; --tw-gradient-to-position: ; --tw-ordinal: ; --tw-slashed-zero: ; --tw-numeric-figure: ; --tw-numeric-spacing: ; --tw-numeric-fraction: ; --tw-ring-inset: ; --tw-ring-offset-width: 0px; --tw-ring-offset-color: #fff; --tw-ring-color: rgba(69,89,164,.5); --tw-ring-offset-shadow: 0 0 transparent; --tw-ring-shadow: 0 0 transparent; --tw-shadow: 0 0 transparent; --tw-shadow-colored: 0 0 transparent; --tw-blur: ; --tw-brightness: ; --tw-contrast: ; --tw-grayscale: ; --tw-hue-rotate: ; --tw-invert: ; --tw-saturate: ; --tw-sepia: ; --tw-drop-shadow: ; --tw-backdrop-blur: ; --tw-backdrop-brightness: ; --tw-backdrop-contrast: ; --tw-backdrop-grayscale: ; --tw-backdrop-hue-rotate: ; --tw-backdrop-invert: ; --tw-backdrop-opacity: ; --tw-backdrop-saturate: ; --tw-backdrop-sepia: ; --darkreader-bg--tw-ring-offset-width: 0px; --darkreader-bg--tw-ring-offset-color: #181a1b; --darkreader-bg--tw-ring-color: rgba(55, 71, 131, 0.5); --darkreader-bg--tw-ring-offset-shadow: 0 0 transparent; --darkreader-bg--tw-ring-shadow: 0 0 transparent; --darkreader-bg--tw-shadow: 0 0 transparent; list-style: disc; margin: 0px 0px 0px 1rem; padding: 0px; display: flex; flex-direction: column;&quot;&gt;&lt;li style=&quot;border: 0px solid rgb(57, 62, 64); box-sizing: border-box; --tw-border-spacing-x: 0; --tw-border-spacing-y: 0; --tw-translate-x: 0; --tw-translate-y: 0; --tw-rotate: 0; --tw-skew-x: 0; --tw-skew-y: 0; --tw-scale-x: 1; --tw-scale-y: 1; --tw-pan-x: ; --tw-pan-y: ; --tw-pinch-zoom: ; --tw-scroll-snap-strictness: proximity; --tw-gradient-from-position: ; --tw-gradient-via-position: ; --tw-gradient-to-position: ; --tw-ordinal: ; --tw-slashed-zero: ; --tw-numeric-figure: ; --tw-numeric-spacing: ; --tw-numeric-fraction: ; --tw-ring-inset: ; --tw-ring-offset-width: 0px; --tw-ring-offset-color: #fff; --tw-ring-color: rgba(69,89,164,.5); --tw-ring-offset-shadow: 0 0 transparent; --tw-ring-shadow: 0 0 transparent; --tw-shadow: 0 0 transparent; --tw-shadow-colored: 0 0 transparent; --tw-blur: ; --tw-brightness: ; --tw-contrast: ; --tw-grayscale: ; --tw-hue-rotate: ; --tw-invert: ; --tw-saturate: ; --tw-sepia: ; --tw-drop-shadow: ; --tw-backdrop-blur: ; --tw-backdrop-brightness: ; --tw-backdrop-contrast: ; --tw-backdrop-grayscale: ; --tw-backdrop-hue-rotate: ; --tw-backdrop-invert: ; --tw-backdrop-opacity: ; --tw-backdrop-saturate: ; --tw-backdrop-sepia: ; --darkreader-bg--tw-ring-offset-width: 0px; --darkreader-bg--tw-ring-offset-color: #181a1b; --darkreader-bg--tw-ring-color: rgba(55, 71, 131, 0.5); --darkreader-bg--tw-ring-offset-shadow: 0 0 transparent; --darkreader-bg--tw-ring-shadow: 0 0 transparent; --darkreader-bg--tw-shadow: 0 0 transparent; margin: 0px; padding-left: 0.375em; display: block; min-height: 28px;&quot;&gt;&lt;ul style=&quot;border: 0px solid rgb(57, 62, 64); box-sizing: border-box; --tw-border-spacing-x: 0; --tw-border-spacing-y: 0; --tw-translate-x: 0; --tw-translate-y: 0; --tw-rotate: 0; --tw-skew-x: 0; --tw-skew-y: 0; --tw-scale-x: 1; --tw-scale-y: 1; --tw-pan-x: ; --tw-pan-y: ; --tw-pinch-zoom: ; --tw-scroll-snap-strictness: proximity; --tw-gradient-from-position: ; --tw-gradient-via-position: ; --tw-gradient-to-position: ; --tw-ordinal: ; --tw-slashed-zero: ; --tw-numeric-figure: ; --tw-numeric-spacing: ; --tw-numeric-fraction: ; --tw-ring-inset: ; --tw-ring-offset-width: 0px; --tw-ring-offset-color: #fff; --tw-ring-color: rgba(69,89,164,.5); --tw-ring-offset-shadow: 0 0 transparent; --tw-ring-shadow: 0 0 transparent; --tw-shadow: 0 0 transparent; --tw-shadow-colored: 0 0 transparent; --tw-blur: ; --tw-brightness: ; --tw-contrast: ; --tw-grayscale: ; --tw-hue-rotate: ; --tw-invert: ; --tw-saturate: ; --tw-sepia: ; --tw-drop-shadow: ; --tw-backdrop-blur: ; --tw-backdrop-brightness: ; --tw-backdrop-contrast: ; --tw-backdrop-grayscale: ; --tw-backdrop-hue-rotate: ; --tw-backdrop-invert: ; --tw-backdrop-opacity: ; --tw-backdrop-saturate: ; --tw-backdrop-sepia: ; --darkreader-bg--tw-ring-offset-width: 0px; --darkreader-bg--tw-ring-offset-color: #181a1b; --darkreader-bg--tw-ring-color: rgba(55, 71, 131, 0.5); --darkreader-bg--tw-ring-offset-shadow: 0 0 transparent; --darkreader-bg--tw-ring-shadow: 0 0 transparent; --darkreader-bg--tw-shadow: 0 0 transparent; list-style: disc; margin: 0px 0px 0px 1rem; padding: 0px; display: flex; flex-direction: column;&quot;&gt;&lt;li style=&quot;border: 0px solid rgb(57, 62, 64); box-sizing: border-box; --tw-border-spacing-x: 0; --tw-border-spacing-y: 0; --tw-translate-x: 0; --tw-translate-y: 0; --tw-rotate: 0; --tw-skew-x: 0; --tw-skew-y: 0; --tw-scale-x: 1; --tw-scale-y: 1; --tw-pan-x: ; --tw-pan-y: ; --tw-pinch-zoom: ; --tw-scroll-snap-strictness: proximity; --tw-gradient-from-position: ; --tw-gradient-via-position: ; --tw-gradient-to-position: ; --tw-ordinal: ; --tw-slashed-zero: ; --tw-numeric-figure: ; --tw-numeric-spacing: ; --tw-numeric-fraction: ; --tw-ring-inset: ; --tw-ring-offset-width: 0px; --tw-ring-offset-color: #fff; --tw-ring-color: rgba(69,89,164,.5); --tw-ring-offset-shadow: 0 0 transparent; --tw-ring-shadow: 0 0 transparent; --tw-shadow: 0 0 transparent; --tw-shadow-colored: 0 0 transparent; --tw-blur: ; --tw-brightness: ; --tw-contrast: ; --tw-grayscale: ; --tw-hue-rotate: ; --tw-invert: ; --tw-saturate: ; --tw-sepia: ; --tw-drop-shadow: ; --tw-backdrop-blur: ; --tw-backdrop-brightness: ; --tw-backdrop-contrast: ; --tw-backdrop-grayscale: ; --tw-backdrop-hue-rotate: ; --tw-backdrop-invert: ; --tw-backdrop-opacity: ; --tw-backdrop-saturate: ; --tw-backdrop-sepia: ; --darkreader-bg--tw-ring-offset-width: 0px; --darkreader-bg--tw-ring-offset-color: #181a1b; --darkreader-bg--tw-ring-color: rgba(55, 71, 131, 0.5); --darkreader-bg--tw-ring-offset-shadow: 0 0 transparent; --darkreader-bg--tw-ring-shadow: 0 0 transparent; --darkreader-bg--tw-shadow: 0 0 transparent; margin: 0px; padding-left: 0.375em; display: block; min-height: 28px;&quot;&gt;A camada de ApresentaÃ§Ã£o Ã© onde a interface do usuÃ¡rio Ã© construÃ­da e a lÃ³gica de apresentaÃ§Ã£o Ã© implementada.&lt;/li&gt;&lt;li style=&quot;border: 0px solid rgb(57, 62, 64); box-sizing: border-box; --tw-border-spacing-x: 0; --tw-border-spacing-y: 0; --tw-translate-x: 0; --tw-translate-y: 0; --tw-rotate: 0; --tw-skew-x: 0; --tw-skew-y: 0; --tw-scale-x: 1; --tw-scale-y: 1; --tw-pan-x: ; --tw-pan-y: ; --tw-pinch-zoom: ; --tw-scroll-snap-strictness: proximity; --tw-gradient-from-position: ; --tw-gradient-via-position: ; --tw-gradient-to-position: ; --tw-ordinal: ; --tw-slashed-zero: ; --tw-numeric-figure: ; --tw-numeric-spacing: ; --tw-numeric-fraction: ; --tw-ring-inset: ; --tw-ring-offset-width: 0px; --tw-ring-offset-color: #fff; --tw-ring-color: rgba(69,89,164,.5); --tw-ring-offset-shadow: 0 0 transparent; --tw-ring-shadow: 0 0 transparent; --tw-shadow: 0 0 transparent; --tw-shadow-colored: 0 0 transparent; --tw-blur: ; --tw-brightness: ; --tw-contrast: ; --tw-grayscale: ; --tw-hue-rotate: ; --tw-invert: ; --tw-saturate: ; --tw-sepia: ; --tw-drop-shadow: ; --tw-backdrop-blur: ; --tw-backdrop-brightness: ; --tw-backdrop-contrast: ; --tw-backdrop-grayscale: ; --tw-backdrop-hue-rotate: ; --tw-backdrop-invert: ; --tw-backdrop-opacity: ; --tw-backdrop-saturate: ; --tw-backdrop-sepia: ; --darkreader-bg--tw-ring-offset-width: 0px; --darkreader-bg--tw-ring-offset-color: #181a1b; --darkreader-bg--tw-ring-color: rgba(55, 71, 131, 0.5); --darkreader-bg--tw-ring-offset-shadow: 0 0 transparent; --darkreader-bg--tw-ring-shadow: 0 0 transparent; --darkreader-bg--tw-shadow: 0 0 transparent; margin: 0px; padding-left: 0.375em; display: block; min-height: 28px;&quot;&gt;Isso inclui telas, widgets, animaÃ§Ãµes e qualquer coisa relacionada Ã  interaÃ§Ã£o com o usuÃ¡rio.&lt;/li&gt;&lt;li style=&quot;border: 0px solid rgb(57, 62, 64); box-sizing: border-box; --tw-border-spacing-x: 0; --tw-border-spacing-y: 0; --tw-translate-x: 0; --tw-translate-y: 0; --tw-rotate: 0; --tw-skew-x: 0; --tw-skew-y: 0; --tw-scale-x: 1; --tw-scale-y: 1; --tw-pan-x: ; --tw-pan-y: ; --tw-pinch-zoom: ; --tw-scroll-snap-strictness: proximity; --tw-gradient-from-position: ; --tw-gradient-via-position: ; --tw-gradient-to-position: ; --tw-ordinal: ; --tw-slashed-zero: ; --tw-numeric-figure: ; --tw-numeric-spacing: ; --tw-numeric-fraction: ; --tw-ring-inset: ; --tw-ring-offset-width: 0px; --tw-ring-offset-color: #fff; --tw-ring-color: rgba(69,89,164,.5); --tw-ring-offset-shadow: 0 0 transparent; --tw-ring-shadow: 0 0 transparent; --tw-shadow: 0 0 transparent; --tw-shadow-colored: 0 0 transparent; --tw-blur: ; --tw-brightness: ; --tw-contrast: ; --tw-grayscale: ; --tw-hue-rotate: ; --tw-invert: ; --tw-saturate: ; --tw-sepia: ; --tw-drop-shadow: ; --tw-backdrop-blur: ; --tw-backdrop-brightness: ; --tw-backdrop-contrast: ; --tw-backdrop-grayscale: ; --tw-backdrop-hue-rotate: ; --tw-backdrop-invert: ; --tw-backdrop-opacity: ; --tw-backdrop-saturate: ; --tw-backdrop-sepia: ; --darkreader-bg--tw-ring-offset-width: 0px; --darkreader-bg--tw-ring-offset-color: #181a1b; --darkreader-bg--tw-ring-color: rgba(55, 71, 131, 0.5); --darkreader-bg--tw-ring-offset-shadow: 0 0 transparent; --darkreader-bg--tw-ring-shadow: 0 0 transparent; --darkreader-bg--tw-shadow: 0 0 transparent; margin: 0px; padding-left: 0.375em; display: block; min-height: 28px;&quot;&gt;Os componentes aqui se comunicam com a camada de DomÃ­nio (casos de uso) para buscar e exibir dados.&lt;/li&gt;&lt;/ul&gt;&lt;/li&gt;&lt;/ul&gt;&lt;/li&gt;&lt;/ul&gt;" style="rounded=1;whiteSpace=wrap;html=1;fillColor=default;opacity=30;strokeColor=default;align=left;" vertex="1" parent="1">
          <mxGeometry x="850" y="820" width="900" height="240" as="geometry" />
        </mxCell>
        <mxCell id="dOJdJ6451scl7A3fg4ha-73" value="&lt;ul style=&quot;border: 0px solid rgb(57, 62, 64); box-sizing: border-box; --tw-border-spacing-x: 0; --tw-border-spacing-y: 0; --tw-translate-x: 0; --tw-translate-y: 0; --tw-rotate: 0; --tw-skew-x: 0; --tw-skew-y: 0; --tw-scale-x: 1; --tw-scale-y: 1; --tw-pan-x: ; --tw-pan-y: ; --tw-pinch-zoom: ; --tw-scroll-snap-strictness: proximity; --tw-gradient-from-position: ; --tw-gradient-via-position: ; --tw-gradient-to-position: ; --tw-ordinal: ; --tw-slashed-zero: ; --tw-numeric-figure: ; --tw-numeric-spacing: ; --tw-numeric-fraction: ; --tw-ring-inset: ; --tw-ring-offset-width: 0px; --tw-ring-offset-color: #fff; --tw-ring-color: rgba(69,89,164,.5); --tw-ring-offset-shadow: 0 0 transparent; --tw-ring-shadow: 0 0 transparent; --tw-shadow: 0 0 transparent; --tw-shadow-colored: 0 0 transparent; --tw-blur: ; --tw-brightness: ; --tw-contrast: ; --tw-grayscale: ; --tw-hue-rotate: ; --tw-invert: ; --tw-saturate: ; --tw-sepia: ; --tw-drop-shadow: ; --tw-backdrop-blur: ; --tw-backdrop-brightness: ; --tw-backdrop-contrast: ; --tw-backdrop-grayscale: ; --tw-backdrop-hue-rotate: ; --tw-backdrop-invert: ; --tw-backdrop-opacity: ; --tw-backdrop-saturate: ; --tw-backdrop-sepia: ; --darkreader-bg--tw-ring-offset-width: 0px; --darkreader-bg--tw-ring-offset-color: #181a1b; --darkreader-bg--tw-ring-color: rgba(55, 71, 131, 0.5); --darkreader-bg--tw-ring-offset-shadow: 0 0 transparent; --darkreader-bg--tw-ring-shadow: 0 0 transparent; --darkreader-bg--tw-shadow: 0 0 transparent; list-style-position: initial; list-style-image: initial; margin: 0px 0px 0px 1rem; padding: 0px; display: flex; flex-direction: column; color: rgb(206, 202, 195); font-family: SÃ¶hne, ui-sans-serif, system-ui, -apple-system, &amp;quot;Segoe UI&amp;quot;, Roboto, Ubuntu, Cantarell, &amp;quot;Noto Sans&amp;quot;, sans-serif, &amp;quot;Helvetica Neue&amp;quot;, Arial, &amp;quot;Apple Color Emoji&amp;quot;, &amp;quot;Segoe UI Emoji&amp;quot;, &amp;quot;Segoe UI Symbol&amp;quot;, &amp;quot;Noto Color Emoji&amp;quot;; font-size: 16px; background-color: rgb(57, 62, 64);&quot;&gt;&lt;li style=&quot;border: 0px solid rgb(57, 62, 64); box-sizing: border-box; --tw-border-spacing-x: 0; --tw-border-spacing-y: 0; --tw-translate-x: 0; --tw-translate-y: 0; --tw-rotate: 0; --tw-skew-x: 0; --tw-skew-y: 0; --tw-scale-x: 1; --tw-scale-y: 1; --tw-pan-x: ; --tw-pan-y: ; --tw-pinch-zoom: ; --tw-scroll-snap-strictness: proximity; --tw-gradient-from-position: ; --tw-gradient-via-position: ; --tw-gradient-to-position: ; --tw-ordinal: ; --tw-slashed-zero: ; --tw-numeric-figure: ; --tw-numeric-spacing: ; --tw-numeric-fraction: ; --tw-ring-inset: ; --tw-ring-offset-width: 0px; --tw-ring-offset-color: #fff; --tw-ring-color: rgba(69,89,164,.5); --tw-ring-offset-shadow: 0 0 transparent; --tw-ring-shadow: 0 0 transparent; --tw-shadow: 0 0 transparent; --tw-shadow-colored: 0 0 transparent; --tw-blur: ; --tw-brightness: ; --tw-contrast: ; --tw-grayscale: ; --tw-hue-rotate: ; --tw-invert: ; --tw-saturate: ; --tw-sepia: ; --tw-drop-shadow: ; --tw-backdrop-blur: ; --tw-backdrop-brightness: ; --tw-backdrop-contrast: ; --tw-backdrop-grayscale: ; --tw-backdrop-hue-rotate: ; --tw-backdrop-invert: ; --tw-backdrop-opacity: ; --tw-backdrop-saturate: ; --tw-backdrop-sepia: ; --darkreader-bg--tw-ring-offset-width: 0px; --darkreader-bg--tw-ring-offset-color: #181a1b; --darkreader-bg--tw-ring-color: rgba(55, 71, 131, 0.5); --darkreader-bg--tw-ring-offset-shadow: 0 0 transparent; --darkreader-bg--tw-ring-shadow: 0 0 transparent; --darkreader-bg--tw-shadow: 0 0 transparent; margin: 0px; padding-left: 0.375em; display: block; min-height: 28px;&quot;&gt;&lt;ul style=&quot;border: 0px solid rgb(57, 62, 64); box-sizing: border-box; --tw-border-spacing-x: 0; --tw-border-spacing-y: 0; --tw-translate-x: 0; --tw-translate-y: 0; --tw-rotate: 0; --tw-skew-x: 0; --tw-skew-y: 0; --tw-scale-x: 1; --tw-scale-y: 1; --tw-pan-x: ; --tw-pan-y: ; --tw-pinch-zoom: ; --tw-scroll-snap-strictness: proximity; --tw-gradient-from-position: ; --tw-gradient-via-position: ; --tw-gradient-to-position: ; --tw-ordinal: ; --tw-slashed-zero: ; --tw-numeric-figure: ; --tw-numeric-spacing: ; --tw-numeric-fraction: ; --tw-ring-inset: ; --tw-ring-offset-width: 0px; --tw-ring-offset-color: #fff; --tw-ring-color: rgba(69,89,164,.5); --tw-ring-offset-shadow: 0 0 transparent; --tw-ring-shadow: 0 0 transparent; --tw-shadow: 0 0 transparent; --tw-shadow-colored: 0 0 transparent; --tw-blur: ; --tw-brightness: ; --tw-contrast: ; --tw-grayscale: ; --tw-hue-rotate: ; --tw-invert: ; --tw-saturate: ; --tw-sepia: ; --tw-drop-shadow: ; --tw-backdrop-blur: ; --tw-backdrop-brightness: ; --tw-backdrop-contrast: ; --tw-backdrop-grayscale: ; --tw-backdrop-hue-rotate: ; --tw-backdrop-invert: ; --tw-backdrop-opacity: ; --tw-backdrop-saturate: ; --tw-backdrop-sepia: ; --darkreader-bg--tw-ring-offset-width: 0px; --darkreader-bg--tw-ring-offset-color: #181a1b; --darkreader-bg--tw-ring-color: rgba(55, 71, 131, 0.5); --darkreader-bg--tw-ring-offset-shadow: 0 0 transparent; --darkreader-bg--tw-ring-shadow: 0 0 transparent; --darkreader-bg--tw-shadow: 0 0 transparent; list-style: disc; margin: 0px 0px 0px 1rem; padding: 0px; display: flex; flex-direction: column;&quot;&gt;&lt;li style=&quot;border: 0px solid rgb(57, 62, 64); box-sizing: border-box; --tw-border-spacing-x: 0; --tw-border-spacing-y: 0; --tw-translate-x: 0; --tw-translate-y: 0; --tw-rotate: 0; --tw-skew-x: 0; --tw-skew-y: 0; --tw-scale-x: 1; --tw-scale-y: 1; --tw-pan-x: ; --tw-pan-y: ; --tw-pinch-zoom: ; --tw-scroll-snap-strictness: proximity; --tw-gradient-from-position: ; --tw-gradient-via-position: ; --tw-gradient-to-position: ; --tw-ordinal: ; --tw-slashed-zero: ; --tw-numeric-figure: ; --tw-numeric-spacing: ; --tw-numeric-fraction: ; --tw-ring-inset: ; --tw-ring-offset-width: 0px; --tw-ring-offset-color: #fff; --tw-ring-color: rgba(69,89,164,.5); --tw-ring-offset-shadow: 0 0 transparent; --tw-ring-shadow: 0 0 transparent; --tw-shadow: 0 0 transparent; --tw-shadow-colored: 0 0 transparent; --tw-blur: ; --tw-brightness: ; --tw-contrast: ; --tw-grayscale: ; --tw-hue-rotate: ; --tw-invert: ; --tw-saturate: ; --tw-sepia: ; --tw-drop-shadow: ; --tw-backdrop-blur: ; --tw-backdrop-brightness: ; --tw-backdrop-contrast: ; --tw-backdrop-grayscale: ; --tw-backdrop-hue-rotate: ; --tw-backdrop-invert: ; --tw-backdrop-opacity: ; --tw-backdrop-saturate: ; --tw-backdrop-sepia: ; --darkreader-bg--tw-ring-offset-width: 0px; --darkreader-bg--tw-ring-offset-color: #181a1b; --darkreader-bg--tw-ring-color: rgba(55, 71, 131, 0.5); --darkreader-bg--tw-ring-offset-shadow: 0 0 transparent; --darkreader-bg--tw-ring-shadow: 0 0 transparent; --darkreader-bg--tw-shadow: 0 0 transparent; margin: 0px; padding-left: 0.375em; display: block; min-height: 28px;&quot;&gt;&lt;ul style=&quot;border: 0px solid rgb(57, 62, 64); box-sizing: border-box; --tw-border-spacing-x: 0; --tw-border-spacing-y: 0; --tw-translate-x: 0; --tw-translate-y: 0; --tw-rotate: 0; --tw-skew-x: 0; --tw-skew-y: 0; --tw-scale-x: 1; --tw-scale-y: 1; --tw-pan-x: ; --tw-pan-y: ; --tw-pinch-zoom: ; --tw-scroll-snap-strictness: proximity; --tw-gradient-from-position: ; --tw-gradient-via-position: ; --tw-gradient-to-position: ; --tw-ordinal: ; --tw-slashed-zero: ; --tw-numeric-figure: ; --tw-numeric-spacing: ; --tw-numeric-fraction: ; --tw-ring-inset: ; --tw-ring-offset-width: 0px; --tw-ring-offset-color: #fff; --tw-ring-color: rgba(69,89,164,.5); --tw-ring-offset-shadow: 0 0 transparent; --tw-ring-shadow: 0 0 transparent; --tw-shadow: 0 0 transparent; --tw-shadow-colored: 0 0 transparent; --tw-blur: ; --tw-brightness: ; --tw-contrast: ; --tw-grayscale: ; --tw-hue-rotate: ; --tw-invert: ; --tw-saturate: ; --tw-sepia: ; --tw-drop-shadow: ; --tw-backdrop-blur: ; --tw-backdrop-brightness: ; --tw-backdrop-contrast: ; --tw-backdrop-grayscale: ; --tw-backdrop-hue-rotate: ; --tw-backdrop-invert: ; --tw-backdrop-opacity: ; --tw-backdrop-saturate: ; --tw-backdrop-sepia: ; --darkreader-bg--tw-ring-offset-width: 0px; --darkreader-bg--tw-ring-offset-color: #181a1b; --darkreader-bg--tw-ring-color: rgba(55, 71, 131, 0.5); --darkreader-bg--tw-ring-offset-shadow: 0 0 transparent; --darkreader-bg--tw-ring-shadow: 0 0 transparent; --darkreader-bg--tw-shadow: 0 0 transparent; list-style: disc; margin: 0px 0px 0px 1rem; padding: 0px; display: flex; flex-direction: column;&quot;&gt;&lt;li style=&quot;border: 0px solid rgb(57, 62, 64); box-sizing: border-box; --tw-border-spacing-x: 0; --tw-border-spacing-y: 0; --tw-translate-x: 0; --tw-translate-y: 0; --tw-rotate: 0; --tw-skew-x: 0; --tw-skew-y: 0; --tw-scale-x: 1; --tw-scale-y: 1; --tw-pan-x: ; --tw-pan-y: ; --tw-pinch-zoom: ; --tw-scroll-snap-strictness: proximity; --tw-gradient-from-position: ; --tw-gradient-via-position: ; --tw-gradient-to-position: ; --tw-ordinal: ; --tw-slashed-zero: ; --tw-numeric-figure: ; --tw-numeric-spacing: ; --tw-numeric-fraction: ; --tw-ring-inset: ; --tw-ring-offset-width: 0px; --tw-ring-offset-color: #fff; --tw-ring-color: rgba(69,89,164,.5); --tw-ring-offset-shadow: 0 0 transparent; --tw-ring-shadow: 0 0 transparent; --tw-shadow: 0 0 transparent; --tw-shadow-colored: 0 0 transparent; --tw-blur: ; --tw-brightness: ; --tw-contrast: ; --tw-grayscale: ; --tw-hue-rotate: ; --tw-invert: ; --tw-saturate: ; --tw-sepia: ; --tw-drop-shadow: ; --tw-backdrop-blur: ; --tw-backdrop-brightness: ; --tw-backdrop-contrast: ; --tw-backdrop-grayscale: ; --tw-backdrop-hue-rotate: ; --tw-backdrop-invert: ; --tw-backdrop-opacity: ; --tw-backdrop-saturate: ; --tw-backdrop-sepia: ; --darkreader-bg--tw-ring-offset-width: 0px; --darkreader-bg--tw-ring-offset-color: #181a1b; --darkreader-bg--tw-ring-color: rgba(55, 71, 131, 0.5); --darkreader-bg--tw-ring-offset-shadow: 0 0 transparent; --darkreader-bg--tw-ring-shadow: 0 0 transparent; --darkreader-bg--tw-shadow: 0 0 transparent; margin: 0px; padding-left: 0.375em; display: block; min-height: 28px;&quot;&gt;A camada de Interface do UsuÃ¡rio Ã© onde vocÃª define a estrutura e o layout visual da sua aplicaÃ§Ã£o.&lt;/li&gt;&lt;li style=&quot;border: 0px solid rgb(57, 62, 64); box-sizing: border-box; --tw-border-spacing-x: 0; --tw-border-spacing-y: 0; --tw-translate-x: 0; --tw-translate-y: 0; --tw-rotate: 0; --tw-skew-x: 0; --tw-skew-y: 0; --tw-scale-x: 1; --tw-scale-y: 1; --tw-pan-x: ; --tw-pan-y: ; --tw-pinch-zoom: ; --tw-scroll-snap-strictness: proximity; --tw-gradient-from-position: ; --tw-gradient-via-position: ; --tw-gradient-to-position: ; --tw-ordinal: ; --tw-slashed-zero: ; --tw-numeric-figure: ; --tw-numeric-spacing: ; --tw-numeric-fraction: ; --tw-ring-inset: ; --tw-ring-offset-width: 0px; --tw-ring-offset-color: #fff; --tw-ring-color: rgba(69,89,164,.5); --tw-ring-offset-shadow: 0 0 transparent; --tw-ring-shadow: 0 0 transparent; --tw-shadow: 0 0 transparent; --tw-shadow-colored: 0 0 transparent; --tw-blur: ; --tw-brightness: ; --tw-contrast: ; --tw-grayscale: ; --tw-hue-rotate: ; --tw-invert: ; --tw-saturate: ; --tw-sepia: ; --tw-drop-shadow: ; --tw-backdrop-blur: ; --tw-backdrop-brightness: ; --tw-backdrop-contrast: ; --tw-backdrop-grayscale: ; --tw-backdrop-hue-rotate: ; --tw-backdrop-invert: ; --tw-backdrop-opacity: ; --tw-backdrop-saturate: ; --tw-backdrop-sepia: ; --darkreader-bg--tw-ring-offset-width: 0px; --darkreader-bg--tw-ring-offset-color: #181a1b; --darkreader-bg--tw-ring-color: rgba(55, 71, 131, 0.5); --darkreader-bg--tw-ring-offset-shadow: 0 0 transparent; --darkreader-bg--tw-ring-shadow: 0 0 transparent; --darkreader-bg--tw-shadow: 0 0 transparent; margin: 0px; padding-left: 0.375em; display: block; min-height: 28px;&quot;&gt;Isso inclui telas, widgets, estilos, temas e tudo o que Ã© visÃ­vel para o usuÃ¡rio.&lt;/li&gt;&lt;li style=&quot;border: 0px solid rgb(57, 62, 64); box-sizing: border-box; --tw-border-spacing-x: 0; --tw-border-spacing-y: 0; --tw-translate-x: 0; --tw-translate-y: 0; --tw-rotate: 0; --tw-skew-x: 0; --tw-skew-y: 0; --tw-scale-x: 1; --tw-scale-y: 1; --tw-pan-x: ; --tw-pan-y: ; --tw-pinch-zoom: ; --tw-scroll-snap-strictness: proximity; --tw-gradient-from-position: ; --tw-gradient-via-position: ; --tw-gradient-to-position: ; --tw-ordinal: ; --tw-slashed-zero: ; --tw-numeric-figure: ; --tw-numeric-spacing: ; --tw-numeric-fraction: ; --tw-ring-inset: ; --tw-ring-offset-width: 0px; --tw-ring-offset-color: #fff; --tw-ring-color: rgba(69,89,164,.5); --tw-ring-offset-shadow: 0 0 transparent; --tw-ring-shadow: 0 0 transparent; --tw-shadow: 0 0 transparent; --tw-shadow-colored: 0 0 transparent; --tw-blur: ; --tw-brightness: ; --tw-contrast: ; --tw-grayscale: ; --tw-hue-rotate: ; --tw-invert: ; --tw-saturate: ; --tw-sepia: ; --tw-drop-shadow: ; --tw-backdrop-blur: ; --tw-backdrop-brightness: ; --tw-backdrop-contrast: ; --tw-backdrop-grayscale: ; --tw-backdrop-hue-rotate: ; --tw-backdrop-invert: ; --tw-backdrop-opacity: ; --tw-backdrop-saturate: ; --tw-backdrop-sepia: ; --darkreader-bg--tw-ring-offset-width: 0px; --darkreader-bg--tw-ring-offset-color: #181a1b; --darkreader-bg--tw-ring-color: rgba(55, 71, 131, 0.5); --darkreader-bg--tw-ring-offset-shadow: 0 0 transparent; --darkreader-bg--tw-ring-shadow: 0 0 transparent; --darkreader-bg--tw-shadow: 0 0 transparent; margin: 0px; padding-left: 0.375em; display: block; min-height: 28px;&quot;&gt;A camada de UI interage com a camada de ApresentaÃ§Ã£o para exibir os dados ao usuÃ¡rio.&lt;/li&gt;&lt;/ul&gt;&lt;/li&gt;&lt;/ul&gt;&lt;/li&gt;&lt;/ul&gt;" style="rounded=1;whiteSpace=wrap;html=1;fillColor=default;opacity=30;strokeColor=default;align=left;" vertex="1" parent="1">
          <mxGeometry x="860" y="1100" width="900" height="130" as="geometry" />
        </mxCell>
        <mxCell id="dOJdJ6451scl7A3fg4ha-75" value="Domain tem as classes com os dados que a aplicaÃ§Ã£o precisa, porem sem nenhuma logica, o arquivo de DATA implementa o arquivo de Domain e faz a sua implementaÃ§Ã£o, podendo ter assim vÃ¡rios Tipos de Authentications com sua implementaÃ§Ã£o diferente porem que tem que retornar sempre que foi definido no Authentication." style="rounded=1;whiteSpace=wrap;html=1;fillColor=#6E6E6E;opacity=30;" vertex="1" parent="1">
          <mxGeometry x="520" y="600" width="270" height="160" as="geometry" />
        </mxCell>
        <mxCell id="dOJdJ6451scl7A3fg4ha-77" value="A classe de DATA&amp;nbsp; implementa uma classe de DOMAIN e todas as classes que forem necessarias de DOMAIN Ã© criado uma nova em DATA para o uso&lt;br&gt;RemoteAuthenticationParams -&amp;gt; AuthenticationParams&lt;br&gt;" style="rounded=1;whiteSpace=wrap;html=1;fillColor=#6E6E6E;opacity=30;" vertex="1" parent="1">
          <mxGeometry x="790" y="250" width="220" height="210" as="geometry" />
        </mxCell>
        <mxCell id="dOJdJ6451scl7A3fg4ha-78" value="" style="rounded=0;whiteSpace=wrap;html=1;fillColor=#90a38f;strokeColor=#82b366;" vertex="1" parent="1">
          <mxGeometry x="610" y="305" width="176" height="55" as="geometry" />
        </mxCell>
        <mxCell id="dOJdJ6451scl7A3fg4ha-58" value="" style="edgeStyle=orthogonalEdgeStyle;rounded=0;orthogonalLoop=1;jettySize=auto;html=1;" edge="1" parent="1" source="dOJdJ6451scl7A3fg4ha-16" target="dOJdJ6451scl7A3fg4ha-17">
          <mxGeometry relative="1" as="geometry" />
        </mxCell>
        <mxCell id="dOJdJ6451scl7A3fg4ha-17" value="RemoteAccountModel" style="rounded=0;whiteSpace=wrap;html=1;" vertex="1" parent="1">
          <mxGeometry x="630" y="320" width="150" height="30" as="geometry" />
        </mxCell>
        <mxCell id="dOJdJ6451scl7A3fg4ha-65" style="edgeStyle=orthogonalEdgeStyle;rounded=0;orthogonalLoop=1;jettySize=auto;html=1;dashed=1;" edge="1" parent="1" source="dOJdJ6451scl7A3fg4ha-17" target="dOJdJ6451scl7A3fg4ha-21">
          <mxGeometry relative="1" as="geometry" />
        </mxCell>
        <mxCell id="dOJdJ6451scl7A3fg4ha-79" value="Model" style="text;html=1;strokeColor=none;fillColor=none;align=right;verticalAlign=middle;whiteSpace=wrap;rounded=0;" vertex="1" parent="1">
          <mxGeometry x="686" y="280" width="100" height="20" as="geometry" />
        </mxCell>
        <mxCell id="dOJdJ6451scl7A3fg4ha-82" value="" style="edgeStyle=orthogonalEdgeStyle;rounded=0;orthogonalLoop=1;jettySize=auto;html=1;entryX=0.25;entryY=1;entryDx=0;entryDy=0;" edge="1" parent="1" source="dOJdJ6451scl7A3fg4ha-80" target="dOJdJ6451scl7A3fg4ha-27">
          <mxGeometry relative="1" as="geometry">
            <Array as="points">
              <mxPoint x="270" y="1130" />
              <mxPoint x="435" y="1130" />
            </Array>
          </mxGeometry>
        </mxCell>
        <mxCell id="dOJdJ6451scl7A3fg4ha-80" value="LoginPresenter (Interface)" style="rounded=0;whiteSpace=wrap;html=1;dashed=1;" vertex="1" parent="1">
          <mxGeometry x="180" y="1150" width="180" height="30" as="geometry" />
        </mxCell>
        <mxCell id="dOJdJ6451scl7A3fg4ha-83" value="" style="edgeStyle=orthogonalEdgeStyle;rounded=0;orthogonalLoop=1;jettySize=auto;html=1;" edge="1" parent="1" source="dOJdJ6451scl7A3fg4ha-38" target="dOJdJ6451scl7A3fg4ha-43">
          <mxGeometry relative="1" as="geometry" />
        </mxCell>
        <mxCell id="dOJdJ6451scl7A3fg4ha-84" value="FieldValidation" style="rounded=0;whiteSpace=wrap;html=1;" vertex="1" parent="1">
          <mxGeometry x="-155" y="930" width="180" height="30" as="geometry" />
        </mxCell>
      </root>
    </mxGraphModel>
  </diagram>
</mxfile>
